<?xml version="1.0" encoding="utf-8"?>
<!-- Generator: Adobe Illustrator 21.0.0, SVG Export Plug-In . SVG Version: 6.00 Build 0)  -->
<svg version="1.1" id="Layer_1" xmlns="http://www.w3.org/2000/svg" xmlns:xlink="http://www.w3.org/1999/xlink" x="0px" y="0px"
	 viewBox="0 0 252 430" style="enable-background:new 0 0 252 430;" xml:space="preserve">
<style type="text/css">
	.st0{fill:#F2F2F3;}
	.st1{fill:#B4B4B4;}
	.st2{fill:#989898;}
	.st3{fill:#333333;}
	.st4{fill:#1A1A1A;}
</style>
<g>
	<path class="st0" d="M211.7,2.4H40.3C20,2.4,3.4,19,3.4,39.3V430h5.4V35c0-0.7,0.5-1.2,1.2-1.2h232c0.7,0,1.2,0.5,1.2,1.2v395h5.4
		V39.3C248.6,19,232,2.4,211.7,2.4z M84.5,22.5c-1.9,0-3.5-1.6-3.5-3.5s1.6-3.5,3.5-3.5S88,17.1,88,19S86.4,22.5,84.5,22.5z
		 M153.7,21H98.3C97,21,96,20.1,96,19s1-2,2.3-2h55.5c1.2,0,2.3,0.9,2.3,2S155,21,153.7,21z"/>
	<path class="st1" d="M250,128.9V97.2c0-0.6,0.4-1,1-1.1V39.3C251,17.6,233.4,0,211.7,0H40.3C18.6,0,1,17.6,1,39.3v21.5
		c0.1,0,0.2,0,0.2,0c0.4,0,0.7,0.2,0.9,0.5c0.2,0.2,0.3,0.5,0.3,0.8v66.8c0,0.3-0.1,0.6-0.3,0.8C2,129.8,1.6,130,1.2,130
		c-0.1,0-0.2,0-0.2,0v300h1.2h1.2V39.3C3.4,19,20,2.4,40.3,2.4h171.3c20.4,0,37,16.6,37,36.9V430h1.2h1.2V130
		C250.4,129.9,250,129.5,250,128.9z"/>
	<path class="st1" d="M242,33.8H10c-0.7,0-1.2,0.5-1.2,1.2v395H10h1.2V36.2h229.6V430h1.2h1.2V35C243.2,34.3,242.7,33.8,242,33.8z"
		/>
	<path class="st2" d="M2.2,129.5c0.2-0.2,0.3-0.5,0.3-0.8V62c0-0.3-0.1-0.6-0.3-0.8c-0.2-0.3-0.6-0.5-0.9-0.5c-0.1,0-0.2,0-0.2,0
		c-0.6,0.1-1,0.6-1,1.2v66.8c0,0.6,0.4,1.1,1,1.2c0.1,0,0.2,0,0.2,0C1.6,130,2,129.8,2.2,129.5z"/>
	<path class="st2" d="M251.1,96.1C251,96.1,251,96.2,251.1,96.1c-0.6,0.1-1.1,0.5-1.1,1.1v31.7c0,0.6,0.4,1,1,1.1c0,0,0,0,0.1,0
		c0.6,0,1.1-0.5,1.1-1.1V97.2C252.1,96.6,251.7,96.1,251.1,96.1z"/>
	<path class="st1" d="M153.7,17H98.3C97,17,96,17.9,96,19s1,2,2.3,2h55.5c1.2,0,2.3-0.9,2.3-2S155,17,153.7,17z M98,20
		c-0.6,0-1-0.4-1-1c0-0.6,0.4-1,1-1s1,0.4,1,1C99,19.6,98.6,20,98,20z M101.5,20c-0.6,0-1-0.4-1-1c0-0.6,0.4-1,1-1s1,0.4,1,1
		C102.5,19.6,102.1,20,101.5,20z M105,20c-0.6,0-1-0.4-1-1c0-0.6,0.4-1,1-1s1,0.4,1,1C106,19.6,105.6,20,105,20z M108.5,20
		c-0.6,0-1-0.4-1-1c0-0.6,0.4-1,1-1s1,0.4,1,1C109.5,19.6,109.1,20,108.5,20z M112,20c-0.6,0-1-0.4-1-1c0-0.6,0.4-1,1-1s1,0.4,1,1
		C113,19.6,112.6,20,112,20z M115.5,20c-0.6,0-1-0.4-1-1c0-0.6,0.4-1,1-1s1,0.4,1,1C116.5,19.6,116.1,20,115.5,20z M119,20
		c-0.6,0-1-0.4-1-1c0-0.6,0.4-1,1-1s1,0.4,1,1C120,19.6,119.6,20,119,20z M122.5,20c-0.6,0-1-0.4-1-1c0-0.6,0.4-1,1-1s1,0.4,1,1
		C123.5,19.6,123.1,20,122.5,20z M126,20c-0.6,0-1-0.4-1-1c0-0.6,0.4-1,1-1s1,0.4,1,1C127,19.6,126.6,20,126,20z M129.5,20
		c-0.6,0-1-0.4-1-1c0-0.6,0.4-1,1-1s1,0.4,1,1C130.5,19.6,130.1,20,129.5,20z M133,20c-0.6,0-1-0.4-1-1c0-0.6,0.4-1,1-1s1,0.4,1,1
		C134,19.6,133.6,20,133,20z M136.5,20c-0.6,0-1-0.4-1-1c0-0.6,0.4-1,1-1s1,0.4,1,1C137.5,19.6,137.1,20,136.5,20z M140,20
		c-0.6,0-1-0.4-1-1c0-0.6,0.4-1,1-1s1,0.4,1,1C141,19.6,140.6,20,140,20z M143.5,20c-0.6,0-1-0.4-1-1c0-0.6,0.4-1,1-1s1,0.4,1,1
		C144.5,19.6,144.1,20,143.5,20z M147,20c-0.6,0-1-0.4-1-1c0-0.6,0.4-1,1-1s1,0.4,1,1C148,19.6,147.6,20,147,20z M150.5,20
		c-0.6,0-1-0.4-1-1c0-0.6,0.4-1,1-1s1,0.4,1,1C151.5,19.6,151.1,20,150.5,20z M154,20c-0.6,0-1-0.4-1-1c0-0.6,0.4-1,1-1s1,0.4,1,1
		C155,19.6,154.6,20,154,20z"/>
	<circle class="st3" cx="98" cy="19" r="1"/>
	<circle class="st3" cx="101.5" cy="19" r="1"/>
	<circle class="st3" cx="105" cy="19" r="1"/>
	<circle class="st3" cx="154" cy="19" r="1"/>
	<circle class="st3" cx="108.5" cy="19" r="1"/>
	<circle class="st3" cx="112" cy="19" r="1"/>
	<circle class="st3" cx="115.5" cy="19" r="1"/>
	<circle class="st3" cx="119" cy="19" r="1"/>
	<circle class="st3" cx="122.5" cy="19" r="1"/>
	<circle class="st3" cx="126" cy="19" r="1"/>
	<circle class="st3" cx="129.5" cy="19" r="1"/>
	<circle class="st3" cx="133" cy="19" r="1"/>
	<circle class="st3" cx="136.5" cy="19" r="1"/>
	<circle class="st3" cx="140" cy="19" r="1"/>
	<circle class="st3" cx="143.5" cy="19" r="1"/>
	<circle class="st3" cx="147" cy="19" r="1"/>
	<circle class="st3" cx="150.5" cy="19" r="1"/>
	<path class="st3" d="M84.5,15.5c-1.9,0-3.5,1.6-3.5,3.5s1.6,3.5,3.5,3.5S88,20.9,88,19S86.4,15.5,84.5,15.5z M84.5,20.2
		c-0.6,0-1.2-0.5-1.2-1.2s0.5-1.2,1.2-1.2s1.2,0.5,1.2,1.2S85.1,20.2,84.5,20.2z"/>
	<circle class="st4" cx="84.5" cy="19" r="1.2"/>
</g>
</svg>
